<?xml version="1.0" standalone="no"?>
<!DOCTYPE svg PUBLIC "-//W3C//DTD SVG 20010904//EN"
 "http://www.w3.org/TR/2001/REC-SVG-20010904/DTD/svg10.dtd">
<svg version="1.0" xmlns="http://www.w3.org/2000/svg"
 width="905.000000pt" height="905.000000pt" viewBox="0 0 905.000000 905.000000"
 preserveAspectRatio="xMidYMid meet">
<metadata>
Created by potrace 1.14, written by Peter Selinger 2001-2017
</metadata>
<g transform="translate(0.000000,905.000000) scale(0.100000,-0.100000)"
fill="#000000" stroke="none">
<path d="M3985 9018 c-27 -4 -75 -10 -105 -13 -30 -4 -134 -22 -230 -41 -195
-39 -183 -37 -265 -59 -33 -9 -67 -18 -75 -20 -152 -37 -427 -136 -635 -229
-414 -184 -891 -496 -1183 -773 -18 -18 -35 -33 -37 -33 -3 0 -252 -251 -287
-291 -13 -14 -44 -50 -70 -80 -44 -51 -55 -64 -102 -120 -47 -56 -190 -254
-251 -349 -97 -149 -99 -152 -178 -290 -72 -128 -173 -341 -242 -515 -26 -66
-51 -129 -55 -140 -16 -40 -40 -105 -39 -108 0 -1 -2 -9 -5 -17 -37 -114 -99
-339 -109 -395 -2 -11 -7 -31 -10 -45 -6 -22 -42 -214 -52 -272 -2 -13 -6 -45
-10 -73 -3 -27 -7 -63 -10 -80 -5 -31 -9 -70 -22 -221 -14 -166 -6 -683 12
-783 1 -9 6 -47 11 -86 4 -38 8 -72 9 -75 0 -3 5 -31 9 -64 9 -69 14 -97 27
-154 5 -23 12 -59 15 -80 28 -184 167 -629 269 -857 7 -16 23 -52 35 -80 30
-67 135 -276 173 -345 38 -69 168 -283 176 -290 3 -3 32 -43 63 -90 62 -93 58
-87 155 -210 91 -115 94 -118 183 -220 74 -84 405 -410 416 -410 4 0 34 -25
78 -65 98 -88 413 -311 551 -390 28 -15 53 -33 57 -39 5 -7 8 -7 8 -1 0 7 3 7
8 0 8 -11 35 -26 232 -125 223 -113 371 -174 615 -255 148 -49 452 -130 521
-139 16 -2 40 -7 54 -10 14 -4 41 -9 60 -11 19 -2 67 -9 105 -15 78 -13 90
-14 190 -24 l70 -7 0 1644 c0 905 -4 1649 -8 1654 -4 4 -276 277 -605 605
l-597 598 605 605 605 604 0 973 c0 858 -2 973 -15 973 -8 1 -34 -3 -58 -7
-24 -4 -64 -10 -90 -14 -26 -3 -50 -8 -53 -10 -3 -2 -19 -5 -35 -8 -109 -20
-319 -79 -340 -97 -9 -7 -12 -201 -12 -785 l0 -775 -780 -779 c-429 -429 -782
-780 -785 -780 -7 0 -1 306 7 360 26 186 40 267 58 335 11 44 21 88 23 98 9
44 88 262 130 357 43 99 131 263 182 340 13 19 29 43 36 54 27 41 143 193 172
225 16 19 35 39 40 45 6 6 31 34 56 61 l45 50 1 392 0 392 -26 -17 c-14 -9
-33 -22 -41 -29 -230 -183 -329 -273 -491 -449 -86 -94 -299 -381 -299 -403 0
-5 -4 -11 -8 -13 -26 -10 -201 -350 -270 -523 -58 -146 -136 -397 -147 -477
-2 -15 -8 -44 -14 -65 -5 -21 -12 -60 -16 -87 -3 -27 -8 -52 -10 -55 -2 -4 -6
-38 -10 -76 -4 -39 -11 -95 -15 -125 -8 -57 -5 -572 3 -625 3 -16 8 -52 12
-80 12 -97 41 -250 57 -310 5 -22 12 -47 13 -55 12 -54 67 -241 85 -285 109
-274 181 -425 268 -568 21 -34 45 -73 53 -87 8 -14 16 -27 19 -30 3 -3 25 -34
49 -70 38 -55 100 -136 171 -224 74 -92 243 -264 350 -356 35 -30 68 -59 74
-65 16 -14 125 -97 162 -123 l31 -22 -1 395 -1 394 -36 38 c-81 84 -114 123
-197 233 -48 64 -92 124 -99 135 -6 11 -35 58 -63 104 -45 75 -150 281 -150
296 0 3 -9 24 -20 48 -10 23 -26 64 -35 91 l-17 48 201 201 200 201 516 -516
515 -515 1 -1134 c0 -624 0 -1147 0 -1163 -1 -26 -3 -28 -28 -21 -16 4 -32 8
-38 9 -20 4 -130 38 -150 47 -11 4 -58 21 -105 37 -198 69 -465 194 -640 300
-19 12 -48 29 -65 38 -62 34 -295 194 -369 254 -370 294 -730 698 -934 1046
-12 22 -32 55 -44 74 -45 75 -161 293 -166 313 -1 4 -11 27 -22 52 -11 25 -28
64 -39 88 -55 125 -133 357 -179 537 -39 153 -89 395 -84 412 1 4 -2 29 -8 55
-18 96 -25 243 -25 508 0 247 9 458 21 476 2 4 7 34 9 66 4 46 51 309 70 383
18 74 58 214 70 250 9 25 18 52 20 60 5 24 55 162 71 197 8 17 14 33 14 36 0
3 10 27 22 54 11 26 22 53 23 58 7 32 180 364 216 417 11 14 19 29 19 34 0 4
11 22 25 40 14 18 25 35 25 38 0 13 196 285 265 367 16 20 48 58 70 84 55 66
337 349 405 406 55 46 131 109 160 132 67 53 287 207 296 207 3 0 24 13 47 29
23 16 58 37 77 48 19 11 58 32 85 48 53 30 303 155 310 155 3 0 29 11 59 25
30 14 57 25 59 25 3 0 22 8 43 17 22 9 44 18 49 19 6 1 57 19 115 40 122 43
164 55 320 94 125 31 131 32 265 56 99 18 103 18 190 29 33 4 64 11 70 16 5 6
10 128 10 305 l0 295 -40 -3 c-22 -1 -62 -6 -90 -10z"/>
<path d="M4930 5201 c0 -2107 4 -3831 8 -3831 18 0 241 42 292 55 30 8 70 17
89 20 19 3 38 8 43 11 4 3 16 7 25 9 40 7 224 70 323 110 99 40 299 133 310
145 3 3 19 12 35 20 73 36 318 193 384 246 9 7 54 43 101 81 112 90 338 315
431 429 115 140 119 146 157 204 21 30 40 57 43 60 14 12 151 247 196 336 43
86 116 249 119 264 0 3 6 19 13 35 34 81 107 323 125 411 3 10 9 39 15 64 10
46 28 154 37 225 3 22 7 51 10 65 10 60 18 227 17 370 0 239 -4 291 -21 297
-8 4 -351 6 -763 7 l-749 1 0 -305 0 -305 458 0 457 0 -3 -25 c-2 -14 -5 -36
-8 -50 -2 -14 -9 -53 -14 -87 -6 -35 -17 -90 -26 -123 -8 -33 -17 -70 -19 -82
-8 -40 -66 -210 -101 -298 -43 -104 -125 -274 -136 -278 -4 -2 -8 -8 -8 -13 0
-15 -107 -183 -176 -276 -217 -291 -501 -542 -809 -713 -77 -43 -204 -106
-232 -114 l-21 -7 0 3076 0 3076 31 -6 c95 -20 334 -104 522 -183 101 -42 397
-198 490 -257 104 -66 170 -109 180 -117 6 -5 48 -36 95 -70 47 -35 90 -67 96
-73 7 -5 31 -26 55 -45 159 -128 489 -453 489 -481 0 -5 4 -9 8 -9 4 0 26 -23
47 -52 22 -28 44 -56 50 -62 6 -6 39 -49 73 -96 34 -47 66 -90 71 -95 12 -16
111 -166 111 -169 0 -2 24 -43 54 -92 116 -193 219 -416 326 -709 16 -43 49
-150 56 -180 1 -5 9 -36 18 -67 10 -31 19 -70 22 -85 3 -15 9 -44 14 -63 5
-19 11 -47 14 -62 2 -15 7 -31 10 -36 3 -4 7 -32 10 -60 3 -29 7 -56 9 -60 3
-4 8 -31 11 -61 4 -29 11 -84 16 -121 30 -209 32 -701 5 -895 -9 -63 -16 -121
-20 -160 -3 -22 -7 -51 -10 -65 -3 -14 -8 -38 -10 -55 -11 -63 -35 -173 -55
-250 -11 -44 -22 -87 -24 -95 -10 -40 -68 -227 -76 -245 -16 -36 -94 -240 -92
-242 4 -8 -190 -381 -255 -488 -69 -114 -208 -320 -238 -351 -5 -6 -22 -26
-37 -45 -71 -91 -105 -132 -181 -215 -56 -61 -227 -234 -232 -234 -2 0 -16
-12 -32 -27 -51 -50 -220 -189 -308 -256 -59 -44 -145 -103 -215 -147 -47 -29
-102 -64 -122 -76 -21 -13 -42 -24 -47 -24 -5 0 -11 -3 -13 -8 -3 -8 -297
-157 -363 -184 -78 -33 -250 -100 -260 -103 -5 -1 -17 -5 -25 -8 -25 -10 -244
-77 -265 -81 -11 -2 -49 -12 -85 -21 -72 -19 -81 -21 -134 -29 -19 -3 -57 -11
-83 -17 -27 -6 -61 -12 -78 -14 -16 -2 -43 -6 -60 -9 -16 -3 -52 -8 -80 -11
-94 -10 -85 22 -85 -317 l0 -300 68 7 c37 3 74 8 82 10 8 2 38 6 65 9 82 9
187 27 404 72 41 8 243 64 291 79 219 72 361 125 475 175 41 18 392 191 430
212 22 12 46 28 53 34 6 7 22 16 35 20 12 4 24 10 27 13 3 4 55 37 115 75 61
38 161 108 223 155 63 47 124 93 136 101 13 8 30 22 38 30 8 8 37 33 64 55
152 124 420 393 544 545 25 30 47 57 50 60 3 3 21 25 40 50 19 25 37 47 40 50
19 16 231 324 266 385 11 20 107 187 124 215 11 19 116 232 140 285 51 110 70
154 70 160 0 3 8 25 19 48 33 74 141 397 146 437 1 8 5 22 8 30 9 23 30 106
43 170 3 14 14 63 24 110 22 102 26 124 46 265 35 251 39 321 39 640 0 302 -9
468 -30 585 -3 14 -7 48 -10 75 -6 47 -9 67 -20 125 -3 14 -7 39 -10 55 -17
114 -89 395 -141 551 -25 77 -47 144 -48 149 -2 6 -7 19 -11 30 -4 11 -25 63
-46 115 -20 52 -53 130 -73 173 -20 42 -36 81 -36 86 0 5 -7 14 -15 21 -9 7
-13 15 -10 18 2 3 -4 19 -14 36 -10 17 -36 65 -57 106 -44 87 -168 297 -227
385 -46 68 -229 316 -249 336 -8 8 -24 28 -37 44 -120 156 -472 504 -631 625
-19 14 -50 39 -71 56 -84 70 -321 234 -416 289 -10 6 -40 24 -68 40 -97 58
-132 76 -295 156 -91 44 -182 90 -202 100 -21 11 -38 17 -38 14 0 -3 -12 0
-27 8 -16 8 -40 20 -55 26 -16 6 -38 15 -50 21 -99 41 -456 152 -527 163 -17
3 -34 8 -39 11 -4 3 -19 7 -33 10 -13 2 -69 14 -124 25 -124 25 -207 39 -265
46 -25 3 -54 7 -65 9 -11 2 -53 7 -92 11 l-73 7 0 -3831z"/>
<path d="M6170 6883 l0 -368 47 -40 c63 -54 198 -189 251 -250 110 -128 302
-404 302 -435 0 -5 3 -10 8 -10 4 0 21 -29 37 -65 17 -35 37 -65 45 -66 16 -1
604 -1 633 0 13 1 15 5 7 19 -5 9 -21 46 -36 82 -37 92 -163 343 -208 415
-106 169 -208 312 -305 425 -57 68 -304 317 -356 360 -135 111 -398 300 -418
300 -4 0 -7 -165 -7 -367z"/>
</g>
</svg>
